<?xml version="1.0" encoding="utf-8"?>
<!-- Generator: Adobe Illustrator 25.0.0, SVG Export Plug-In . SVG Version: 6.00 Build 0)  -->
<svg version="1.1" id="Calque_1" xmlns="http://www.w3.org/2000/svg" xmlns:xlink="http://www.w3.org/1999/xlink" x="0px" y="0px"
	 viewBox="0 0 841.89 595.28" style="enable-background:new 0 0 841.89 595.28;" xml:space="preserve">
<style type="text/css">
	.st0{fill:#1E3A31;}
</style>
<g>
	<g>
		<g>
			<path class="st0" d="M612.18,222.99c-0.42,3.88-0.83,7.76-1.26,11.64c-1.99,18.1-6.73,35.47-13.98,52.14
				c-8.34,19.16-19.62,36.4-33.91,51.66c-0.29,0.31-0.43,0.76-0.49,0.88c-7.12-9.76-14.02-19.22-20.93-28.7
				c3.54-4.45,7.6-9.2,11.26-14.24c13.7-18.91,22.53-39.89,25.71-63.06c1.02-7.46,1.57-15.05,1.6-22.58
				c0.15-38.68,0.07-77.36,0.07-116.04c0-2.9,0-2.9-2.8-2.89c-8.87,0.01-17.74,0.03-26.61,0.04c-0.85,0-1.71,0-2.79,0
				c0,1.15,0,2.01,0,2.86c0.01,39.92,0.3,79.83-0.06,119.75c-0.28,31.16-12.08,57.78-33.91,79.95c-6.14,6.24-13.01,11.6-20.45,16.22
				c-0.3,0.19-0.57,0.42-1.04,0.77c19.84,12.37,34.8,28.93,44.82,50.12c-8.76,6.41-18.05,11.56-27.92,16.18
				c-0.54-1.14-0.98-2.11-1.46-3.06c-13.87-27.34-35.93-43.78-66.43-46.72c-38.88-3.75-69,16.72-83.71,47.56
				c-0.22,0.45-0.45,0.9-0.82,1.65c-3.22-1.62-6.45-3.04-9.48-4.81c-5.83-3.41-11.51-7.06-17.31-10.51
				c-1.53-0.91-1.66-1.7-0.86-3.26c9.59-18.72,23.09-33.9,40.75-45.35c0.79-0.51,1.56-1.05,2.34-1.59c0.05-0.04,0.07-0.12,0.18-0.32
				c-0.34-0.28-0.69-0.61-1.08-0.86c-32.05-20.89-50.37-50.25-53.77-88.44c-0.93-10.47-0.5-21.06-0.52-31.6
				c-0.05-31.92-0.05-63.84,0.04-95.76c0.01-2.28-0.64-2.78-2.81-2.75c-8.87,0.13-17.74,0.05-26.61,0.06c-0.78,0-1.55,0-2.44,0
				c-0.06,0.74-0.13,1.23-0.13,1.72c0.01,41.01-0.33,82.02,0.15,123.02c0.36,30.3,10.26,57.69,28.08,82.19
				c1.67,2.29,3.42,4.52,5.22,6.71c1.78,2.18,3.67,4.29,5.49,6.41c-3.6,4.43-7.26,8.64-10.59,13.11c-3.29,4.42-6.23,9.1-9.53,13.96
				c-2.53-2.78-5.16-5.52-7.63-8.41c-19.61-22.99-32.77-49.23-39.28-78.74c-2.63-11.95-4.14-24.06-4.14-36.31
				c-0.02-51.19-0.02-102.37-0.02-153.56c0-0.65,0-1.29,0-2.14c32.13,0,64.13,0,96.4,0c0,1.22,0,2.36,0,3.5
				c0,50.17-0.41,100.34,0.16,150.5c0.34,30.15,14.17,53.7,39.84,69.42c37.17,22.75,84.75,12.67,110.19-22.72
				c10.37-14.43,15.34-30.66,15.42-48.41c0.19-39.62,0.4-79.25,0.59-118.87c0.05-10.4,0.11-20.79,0.05-31.19
				c-0.01-1.88,0.45-2.46,2.41-2.46c31.34,0.1,62.67,0.11,94.01,0.14C612.18,114.22,612.18,168.6,612.18,222.99z"/>
			<path class="st0" d="M440.73,50.67c3.96,0.86,8.09,1.27,11.86,2.64C474.4,61.22,488,76.47,492.6,99.33
				c0.89,4.45,1.1,9.09,1.14,13.64c0.12,16.94,0.04,33.88,0.01,50.82c0,1.06-0.12,2.12-0.19,3.1c-0.43,0.08-0.61,0.17-0.71,0.12
				c-6.21-3.33-12.49-6.57-17.59-11.57c-6.69-6.57-8.72-14.68-7.68-23.77c1.04-9,1.08-18-0.54-26.94
				c-2.44-13.42-10.26-22.64-23.14-26.71c-13.26-4.19-25.32-0.88-34.99,9.08c-16.7,17.21-11.58,44.72,10.07,55.08
				c2.61,1.25,3.55,2.65,3.45,5.57c-0.25,7.12-0.08,14.25-0.08,21.37c0,0.71,0,1.41,0,2.52c-4.09-1.6-7.89-2.96-11.59-4.55
				c-17.6-7.56-30.17-19.91-35.2-38.72c-4.75-17.74-3.34-34.93,7.15-50.59c10.62-15.86,25.42-24.95,44.54-26.76
				c0.57-0.05,1.12-0.24,1.68-0.37C432.87,50.67,436.8,50.67,440.73,50.67z"/>
			<path class="st0" d="M431.56,389.2c-2.37-0.99-5.01-1.61-7.06-3.05c-5.1-3.57-6.78-10.28-4.4-15.93
				c2.37-5.64,8.44-9.24,14.14-8.38c6.71,1,11.36,5.79,12.04,12.42c0.61,5.97-3.16,11.92-8.96,13.96c-1.42,0.5-2.96,0.66-4.44,0.98
				C432.44,389.2,432,389.2,431.56,389.2z"/>
			<path class="st0" d="M373.56,157.75c0.71,0.15,1.18,0.15,1.52,0.35c5.68,3.36,11.67,6.25,16.45,10.97
				c6.11,6.05,8.55,13.24,8.01,21.9c-0.54,8.75-0.66,17.59-0.05,26.33c1.04,14.74,12.33,27.39,26.66,30.21
				c14.55,2.86,30.2-3.41,37.88-18.24c7.2-13.92,4.22-30.69-7.44-41c-2.48-2.19-5.48-3.79-8.16-5.77c-0.65-0.48-1.4-1.37-1.41-2.08
				c-0.1-8.29-0.07-16.57-0.06-24.86c0-0.41,0.13-0.82,0.28-1.71c5.09,2.21,10.07,4.15,14.86,6.49c28.85,14.12,41.2,53.62,24,83.31
				c-10.5,18.12-26.09,27.79-46.6,29.9c-26.04,2.69-45.45-8.02-58.73-30.1c-5.21-8.66-7.54-18.41-7.57-28.55
				c-0.04-18.32,0.09-36.63,0.17-54.95C373.36,159.32,373.47,158.68,373.56,157.75z"/>
		</g>
		<g>
			<path class="st0" d="M476.92,496.23c-0.25-2.65-0.19-5.38-0.81-7.94c-1.8-7.42-7.37-10.55-14.33-11.87
				c-1.37-0.26-2.77-0.37-4.53-0.59c0,6.74,0,13.23,0,20.04c-2.43,0-4.53,0.12-6.6-0.1c-0.44-0.05-1.07-1.33-1.08-2.05
				c-0.07-6.06-0.03-12.12-0.01-18.18c0.04-10.7,0.13-21.41,0.09-32.11c-0.01-1.88,0.53-2.39,2.41-2.38
				c10.01,0.07,20.02,0.05,30.03-0.07c1.92-0.02,2.38,0.54,2.34,2.4c-0.24,13.26-7.07,21.74-19.96,24.63
				c-0.37,0.08-0.73,0.24-1.56,0.53c2.08,0.64,3.75,1.08,5.37,1.65c10.23,3.61,15.91,11.45,16.18,22.27
				c0.03,1.26,0.02,2.52,0.03,3.77C481.97,496.23,479.45,496.23,476.92,496.23z M457.21,461.07c9.77-0.31,17.44-4.55,18.48-12.13
				c-5.53,0-11.03,0-16.53,0.01c-0.53,0-1.07,0.11-1.95,0.2c0,2.88,0,5.7,0,8.51C457.21,458.75,457.21,459.84,457.21,461.07z"/>
			<path class="st0" d="M313.72,496.23c-0.19-0.74-0.55-1.48-0.55-2.23c-0.11-17.16-0.19-34.31-0.26-51.47
				c0-0.45,0.11-0.9,0.25-1.97c4.75,0.63,9.43,1.04,14.02,1.91c4.67,0.88,8.85,3.05,12.92,6.45c0-2.88,0-5.26,0-7.8
				c2.66,0,5.04,0,7.56,0c0.04,0.71,0.11,1.32,0.11,1.93c0.07,16.76,0.14,33.53,0.16,50.29c0,0.96-0.4,1.92-0.62,2.89
				c-2.21,0-4.42,0-6.62,0c-0.14-0.92-0.41-1.83-0.41-2.75c-0.06-7.71,0-15.43-0.15-23.14c-0.05-2.49-0.37-5.03-0.94-7.46
				c-1.94-8.18-10.75-14.45-18.59-13.23c0,0.5,0,1.04,0,1.57c0.06,13.69,0.14,27.39,0.17,41.08c0,1.31-0.27,2.61-0.42,3.92
				C318.13,496.23,315.93,496.23,313.72,496.23z"/>
			<path class="st0" d="M631.61,495.75c-5.89,0.22-11.62-0.58-17.1-2.84c-8.74-3.61-13.34-10.58-15.71-19.37
				c-1.82-6.76-1.91-13.68-2.03-20.59c-0.06-3.46,0.06-6.92,0.09-10.38c0.01-1.05,0.21-1.8,1.56-1.8c10.63,0,21.26-0.04,31.89-0.06
				c0.22,0,0.44,0.14,0.77,0.25c0,2.39,0,4.8,0,7.47c-8.78,0-17.48,0-26.36,0c0,4.78-0.23,9.33,0.07,13.83
				c0.24,3.5,0.84,7.03,1.8,10.41c2.63,9.27,8.99,14.26,18.65,15.04c2.12,0.17,4.23,0.32,6.35,0.48
				C631.61,490.71,631.61,493.23,631.61,495.75z"/>
			<path class="st0" d="M577.57,440.89c0,6.17-0.01,11.98,0,17.79c0.02,11.42,0.01,22.83,0.13,34.24c0.02,2.02-0.63,2.65-2.55,2.48
				c-1.55-0.13-3.13-0.03-5.11-0.03c0-14.96,0-29.86,0-45.43c-1.56,0.87-2.61,1.31-3.48,1.98c-5.16,3.96-8.39,9.11-9.2,15.61
				c-0.16,1.3-0.56,1.8-1.87,1.74c-1.87-0.08-3.76-0.02-5.71-0.02c-1.23-8.49-4.96-15.14-13.12-19.52c0,1.7-0.01,2.99,0,4.29
				c0.07,12.91,0.09,25.82,0.25,38.73c0.03,2.08-0.54,2.71-2.63,2.68c-5.22-0.08-5.22,0.02-5.23-5.19
				c-0.03-15.51-0.06-31.02-0.09-46.53c0-0.85,0-1.69,0-2.81c11.27-0.37,18.73,5.26,24.41,14.3
				C559.06,446.48,566.32,440.61,577.57,440.89z"/>
			<path class="st0" d="M495.44,495.44c-2.64,0-4.97,0-7.68,0c0-3.3,0.01-6.58,0-9.85c-0.03-8.19,0.04-16.35,2.34-24.33
				c3.71-12.83,12.81-18.85,25-20.3c2.32-0.28,4.67-0.37,7.21-0.56c0.06,1.02,0.14,1.78,0.14,2.54c0.09,16.76,0.14,33.52,0.3,50.28
				c0.02,1.99-0.54,2.59-2.51,2.52c-6.04-0.23-5.27,0.83-5.33-5.26c-0.06-6.3-0.01-12.59-0.01-18.89c0-0.84,0-1.69,0-2.79
				c-5.99,0-11.72-0.03-17.44,0.02c-1.81,0.02-1.5,1.61-1.54,2.66c-0.21,6.52-0.34,13.05-0.48,19.58
				C495.42,492.4,495.44,493.72,495.44,495.44z M514.73,449.12c-6.25-0.08-14.82,5.48-15.96,11.66c5.31,0,10.58,0,15.96,0
				C514.73,456.75,514.73,452.93,514.73,449.12z"/>
			<path class="st0" d="M233.8,441.2c11.52,0,22.91,0,34.73,0c0,2.1,0.1,4.35-0.09,6.56c-0.03,0.41-1.21,1.02-1.87,1.02
				c-7.41,0.1-14.81,0.11-22.22,0.14c-0.78,0-1.55,0-2.31,0c-0.3,4.87,3.03,9.63,8.14,10.85c3.79,0.9,7.77,1.13,11.69,1.4
				c5.51,0.39,6.69,1.5,6.76,7.07c0.16,12.93-8.17,23.11-21.96,26.38c-4.09,0.97-8.37,1.12-12.94,1.69c0-2.7-0.1-4.88,0.09-7.04
				c0.04-0.43,1.16-1.07,1.82-1.1c4.82-0.28,9.57-0.79,14.05-2.8c5.85-2.62,9.66-6.9,10.88-13.29c0.09-0.46,0.14-0.93,0.17-1.4
				c0.03-0.46,0.01-0.93,0.01-1.7c-9.34-0.3-18.56-1.09-23.94-10.21C233.65,453.44,233.4,447.47,233.8,441.2z"/>
			<path class="st0" d="M279.64,440.58c0,6.83-0.36,13.22,0.11,19.56c0.38,5.11,1.24,10.32,2.85,15.16
				c2.45,7.35,8.49,10.69,16.08,11.97c0-15.55,0-30.93,0-46.53c2.45,0,4.84,0,7.46,0c0.07,0.48,0.23,1.06,0.23,1.65
				c0.08,16.92,0.11,33.83,0.26,50.75c0.02,2.13-0.6,2.7-2.68,2.53c-5.28-0.44-10.52-1.06-15.36-3.35
				c-9.39-4.43-14.28-12.37-15.42-22.23c-1.06-9.18-0.89-18.5-1.3-27.76c-0.06-1.34,0.42-1.83,1.76-1.77
				C275.51,440.64,277.38,440.58,279.64,440.58z"/>
			<path class="st0" d="M418.79,460.4c4.75,0,9.05,0,13.51,0c0,2.67,0,5.06,0,7.78c-4,0-7.98,0-11.94,0
				c-0.29,6.31,4.65,14.15,10.97,16.56c3.75,1.43,7.89,1.94,11.91,2.47c2,0.26,2.87,0.58,2.8,2.84c-0.16,5.53-0.03,5.47-5.55,4.93
				c-7.63-0.75-14.69-2.78-20.2-8.5c-4.96-5.16-7.43-11.58-8.04-18.47c-0.77-8.6-0.69-17.28-1.01-25.93
				c-0.05-1.45,0.6-1.91,1.98-1.91c10.17-0.02,20.34-0.07,30.51-0.15c1.25-0.01,1.81,0.31,1.91,1.69c0.42,6,0.47,6.03-5.53,6.1
				c-6.31,0.07-12.61,0.11-18.92,0.03c-1.85-0.02-2.51,0.52-2.43,2.41C418.88,453.54,418.79,456.84,418.79,460.4z"/>
			<path class="st0" d="M408.92,488.16c0,2.62,0,5.01,0,7.39c-17.56,0.96-29.72-7.11-33.18-24.05c-1.97-9.64-1.41-19.41-1.37-29.14
				c0-0.52,0.94-1.5,1.45-1.5c10.71-0.11,21.42-0.12,32.12-0.13c0.21,0,0.43,0.17,0.68,0.28c0,2.41,0,4.8,0,7.5
				c-8.91,0-17.68,0-26.69,0c0.06,9.31-0.36,18.37,3.04,26.98c3.17,8.03,9.75,11.31,17.87,12.21
				C404.79,487.91,406.75,488,408.92,488.16z"/>
			<path class="st0" d="M591.61,495.67c-2.39,0-4.65,0-7.26,0c0-18.19,0-36.31,0-54.61c2.21,0,4.6,0,7.26,0
				C591.61,459.18,591.61,477.3,591.61,495.67z"/>
		</g>
	</g>
</g>
</svg>
