<?xml version="1.0" encoding="utf-8"?>
<!-- Generator: Adobe Illustrator 25.0.0, SVG Export Plug-In . SVG Version: 6.00 Build 0)  -->
<svg version="1.1" id="Calque_1" xmlns="http://www.w3.org/2000/svg" xmlns:xlink="http://www.w3.org/1999/xlink" x="0px" y="0px"
	 viewBox="0 0 841.89 595.28" style="enable-background:new 0 0 841.89 595.28;" xml:space="preserve">
<style type="text/css">
	.st0{fill:#1E3A31;}
</style>
<g>
	<g>
		<g>
			<path class="st0" d="M567.04,326.79c-0.25-2.65-0.19-5.38-0.81-7.94c-1.8-7.42-7.37-10.55-14.33-11.87
				c-1.37-0.26-2.77-0.37-4.53-0.59c0,6.74,0,13.23,0,20.04c-2.42,0-4.53,0.12-6.6-0.1c-0.44-0.05-1.07-1.33-1.08-2.05
				c-0.07-6.06-0.03-12.12-0.01-18.18c0.04-10.7,0.13-21.41,0.09-32.11c-0.01-1.88,0.53-2.39,2.41-2.38
				c10.01,0.07,20.02,0.05,30.03-0.07c1.92-0.02,2.38,0.54,2.34,2.4c-0.24,13.26-7.07,21.74-19.96,24.63
				c-0.37,0.08-0.73,0.24-1.56,0.53c2.08,0.64,3.75,1.08,5.37,1.65c10.23,3.61,15.91,11.45,16.18,22.27
				c0.03,1.26,0.02,2.52,0.03,3.77C572.09,326.79,569.56,326.79,567.04,326.79z M547.33,291.64c9.77-0.31,17.44-4.55,18.48-12.13
				c-5.53,0-11.03,0-16.53,0.01c-0.53,0-1.07,0.11-1.95,0.2c0,2.88,0,5.7,0,8.51C547.33,289.32,547.33,290.4,547.33,291.64z"/>
			<path class="st0" d="M403.84,326.79c-0.19-0.74-0.55-1.48-0.55-2.23c-0.11-17.16-0.19-34.31-0.26-51.47
				c0-0.45,0.11-0.9,0.25-1.97c4.75,0.63,9.43,1.04,14.02,1.91c4.67,0.88,8.85,3.05,12.92,6.45c0-2.88,0-5.26,0-7.8
				c2.66,0,5.04,0,7.56,0c0.04,0.71,0.11,1.32,0.11,1.93c0.07,16.76,0.14,33.53,0.16,50.29c0,0.96-0.4,1.92-0.62,2.89
				c-2.21,0-4.42,0-6.62,0c-0.14-0.92-0.41-1.83-0.41-2.75c-0.06-7.71,0-15.43-0.15-23.14c-0.05-2.49-0.36-5.03-0.94-7.46
				c-1.94-8.18-10.75-14.45-18.59-13.23c0,0.5,0,1.04,0,1.57c0.06,13.69,0.14,27.39,0.17,41.08c0,1.31-0.27,2.61-0.42,3.92
				C408.25,326.79,406.04,326.79,403.84,326.79z"/>
			<path class="st0" d="M721.73,326.32c-5.89,0.22-11.62-0.58-17.1-2.84c-8.74-3.61-13.34-10.58-15.71-19.37
				c-1.82-6.76-1.91-13.68-2.03-20.59c-0.06-3.46,0.06-6.92,0.09-10.38c0.01-1.05,0.21-1.8,1.56-1.8c10.63,0,21.26-0.04,31.89-0.06
				c0.22,0,0.44,0.14,0.77,0.25c0,2.39,0,4.8,0,7.47c-8.78,0-17.48,0-26.36,0c0,4.78-0.23,9.33,0.07,13.83
				c0.24,3.5,0.84,7.03,1.8,10.41c2.63,9.27,8.99,14.26,18.65,15.04c2.12,0.17,4.23,0.32,6.35,0.48
				C721.73,321.28,721.73,323.8,721.73,326.32z"/>
			<path class="st0" d="M667.69,271.45c0,6.17-0.01,11.98,0,17.79c0.02,11.42,0.01,22.83,0.13,34.24c0.02,2.02-0.63,2.65-2.55,2.48
				c-1.55-0.13-3.13-0.03-5.11-0.03c0-14.96,0-29.86,0-45.43c-1.56,0.87-2.61,1.31-3.48,1.98c-5.16,3.96-8.39,9.11-9.2,15.61
				c-0.16,1.3-0.56,1.8-1.87,1.74c-1.87-0.08-3.76-0.02-5.71-0.02c-1.23-8.49-4.96-15.14-13.12-19.52c0,1.7-0.01,2.99,0,4.29
				c0.07,12.91,0.09,25.82,0.25,38.73c0.03,2.08-0.54,2.71-2.63,2.68c-5.22-0.08-5.22,0.02-5.23-5.19
				c-0.03-15.51-0.06-31.02-0.09-46.53c0-0.85,0-1.69,0-2.81c11.27-0.37,18.73,5.26,24.41,14.3
				C649.17,277.04,656.44,271.17,667.69,271.45z"/>
			<path class="st0" d="M585.56,326c-2.64,0-4.97,0-7.68,0c0-3.3,0.01-6.58,0-9.85c-0.03-8.19,0.04-16.35,2.34-24.33
				c3.71-12.83,12.81-18.85,25-20.3c2.32-0.28,4.67-0.37,7.21-0.56c0.06,1.02,0.14,1.78,0.14,2.54c0.09,16.76,0.14,33.52,0.3,50.28
				c0.02,1.99-0.54,2.59-2.51,2.52c-6.04-0.23-5.27,0.83-5.33-5.26c-0.06-6.3-0.01-12.59-0.01-18.89c0-0.84,0-1.69,0-2.79
				c-5.99,0-11.72-0.03-17.44,0.02c-1.81,0.02-1.5,1.61-1.54,2.66c-0.21,6.52-0.34,13.05-0.48,19.58
				C585.54,322.96,585.56,324.29,585.56,326z M604.84,279.68c-6.25-0.08-14.82,5.48-15.96,11.66c5.31,0,10.58,0,15.96,0
				C604.84,287.31,604.84,283.49,604.84,279.68z"/>
			<path class="st0" d="M323.92,271.76c11.52,0,22.91,0,34.73,0c0,2.1,0.1,4.35-0.09,6.56c-0.03,0.41-1.21,1.02-1.87,1.02
				c-7.41,0.1-14.81,0.11-22.22,0.14c-0.78,0-1.55,0-2.31,0c-0.3,4.87,3.03,9.63,8.14,10.85c3.79,0.9,7.77,1.13,11.69,1.4
				c5.51,0.39,6.69,1.5,6.76,7.07c0.16,12.93-8.17,23.11-21.96,26.38c-4.09,0.97-8.37,1.12-12.94,1.69c0-2.7-0.1-4.88,0.09-7.04
				c0.04-0.43,1.16-1.07,1.82-1.1c4.82-0.28,9.57-0.79,14.05-2.8c5.85-2.62,9.66-6.9,10.88-13.29c0.09-0.46,0.14-0.93,0.17-1.4
				c0.03-0.46,0.01-0.93,0.01-1.7c-9.34-0.3-18.56-1.09-23.94-10.21C323.76,284,323.52,278.03,323.92,271.76z"/>
			<path class="st0" d="M369.76,271.14c0,6.83-0.36,13.22,0.11,19.56c0.38,5.11,1.24,10.32,2.85,15.16
				c2.45,7.35,8.49,10.69,16.08,11.97c0-15.55,0-30.93,0-46.53c2.45,0,4.84,0,7.46,0c0.07,0.48,0.23,1.06,0.23,1.65
				c0.08,16.92,0.11,33.83,0.26,50.75c0.02,2.13-0.6,2.7-2.68,2.53c-5.28-0.44-10.52-1.06-15.36-3.35
				c-9.39-4.43-14.28-12.37-15.42-22.23c-1.06-9.18-0.89-18.5-1.3-27.76c-0.06-1.34,0.42-1.83,1.76-1.77
				C365.63,271.21,367.5,271.14,369.76,271.14z"/>
			<path class="st0" d="M508.9,290.97c4.75,0,9.05,0,13.51,0c0,2.67,0,5.06,0,7.78c-4,0-7.98,0-11.94,0
				c-0.29,6.31,4.65,14.15,10.97,16.56c3.75,1.43,7.89,1.94,11.91,2.47c2,0.26,2.87,0.58,2.8,2.84c-0.16,5.53-0.03,5.47-5.55,4.93
				c-7.63-0.75-14.69-2.78-20.2-8.5c-4.96-5.16-7.43-11.58-8.04-18.47c-0.77-8.6-0.69-17.28-1.01-25.93
				c-0.05-1.45,0.6-1.91,1.98-1.91c10.17-0.02,20.34-0.07,30.51-0.15c1.25-0.01,1.81,0.31,1.91,1.69c0.42,6,0.47,6.03-5.53,6.1
				c-6.31,0.07-12.61,0.11-18.92,0.03c-1.85-0.02-2.51,0.52-2.43,2.41C509,284.1,508.9,287.4,508.9,290.97z"/>
			<path class="st0" d="M499.04,318.72c0,2.62,0,5.01,0,7.39c-17.56,0.96-29.72-7.11-33.18-24.05c-1.97-9.64-1.41-19.41-1.37-29.14
				c0-0.52,0.94-1.5,1.45-1.5c10.71-0.11,21.42-0.12,32.12-0.13c0.21,0,0.43,0.17,0.68,0.28c0,2.41,0,4.8,0,7.5
				c-8.91,0-17.68,0-26.69,0c0.06,9.31-0.36,18.37,3.04,26.98c3.17,8.03,9.75,11.31,17.87,12.21
				C494.91,318.48,496.87,318.56,499.04,318.72z"/>
			<path class="st0" d="M681.72,326.23c-2.39,0-4.65,0-7.26,0c0-18.19,0-36.31,0-54.61c2.21,0,4.6,0,7.26,0
				C681.72,289.74,681.72,307.86,681.72,326.23z"/>
		</g>
	</g>
</g>
<g>
	<path class="st0" d="M273.24,299.73c-0.14,1.26-0.27,2.52-0.41,3.79c-0.65,5.89-2.19,11.53-4.55,16.96
		c-2.71,6.23-6.38,11.84-11.03,16.8c-0.09,0.1-0.14,0.25-0.16,0.29c-2.31-3.17-4.56-6.25-6.81-9.33c1.15-1.45,2.47-2.99,3.66-4.63
		c4.46-6.15,7.33-12.97,8.36-20.51c0.33-2.43,0.51-4.89,0.52-7.34c0.05-12.58,0.02-25.16,0.02-37.74c0-0.94,0-0.94-0.91-0.94
		c-2.88,0-5.77,0.01-8.65,0.01c-0.28,0-0.55,0-0.91,0c0,0.37,0,0.65,0,0.93c0,12.98,0.1,25.96-0.02,38.95
		c-0.09,10.14-3.93,18.79-11.03,26c-2,2.03-4.23,3.77-6.65,5.27c-0.1,0.06-0.19,0.14-0.34,0.25c6.45,4.02,11.32,9.41,14.58,16.3
		c-2.85,2.09-5.87,3.76-9.08,5.26c-0.18-0.37-0.32-0.69-0.47-0.99c-4.51-8.89-11.68-14.24-21.6-15.19
		c-12.65-1.22-22.44,5.44-27.23,15.47c-0.07,0.15-0.15,0.29-0.27,0.54c-1.05-0.53-2.1-0.99-3.08-1.56c-1.9-1.11-3.74-2.3-5.63-3.42
		c-0.5-0.3-0.54-0.55-0.28-1.06c3.12-6.09,7.51-11.02,13.25-14.75c0.26-0.17,0.51-0.34,0.76-0.52c0.02-0.01,0.02-0.04,0.06-0.11
		c-0.11-0.09-0.22-0.2-0.35-0.28c-10.42-6.8-16.38-16.34-17.49-28.76c-0.3-3.4-0.16-6.85-0.17-10.28
		c-0.02-10.38-0.02-20.76,0.01-31.14c0-0.74-0.21-0.9-0.91-0.89c-2.88,0.04-5.77,0.02-8.65,0.02c-0.25,0-0.51,0-0.79,0
		c-0.02,0.24-0.04,0.4-0.04,0.56c0,13.34-0.11,26.67,0.05,40.01c0.12,9.85,3.34,18.76,9.13,26.73c0.54,0.74,1.11,1.47,1.7,2.18
		c0.58,0.71,1.19,1.39,1.79,2.08c-1.17,1.44-2.36,2.81-3.44,4.26c-1.07,1.44-2.03,2.96-3.1,4.54c-0.82-0.9-1.68-1.8-2.48-2.73
		c-6.38-7.48-10.66-16.01-12.77-25.61c-0.86-3.89-1.35-7.82-1.35-11.81c-0.01-16.65-0.01-33.29-0.01-49.94c0-0.21,0-0.42,0-0.69
		c10.45,0,20.86,0,31.35,0c0,0.4,0,0.77,0,1.14c0,16.32-0.13,32.63,0.05,48.95c0.11,9.81,4.61,17.47,12.96,22.58
		c12.09,7.4,27.56,4.12,35.84-7.39c3.37-4.69,4.99-9.97,5.02-15.74c0.06-12.89,0.13-25.77,0.19-38.66
		c0.02-3.38,0.03-6.76,0.02-10.14c0-0.61,0.15-0.8,0.78-0.8c10.19,0.03,20.38,0.04,30.57,0.05
		C273.24,264.35,273.24,282.04,273.24,299.73z"/>
	<path class="st0" d="M217.48,243.68c1.29,0.28,2.63,0.41,3.86,0.86c7.09,2.57,11.52,7.53,13.01,14.97
		c0.29,1.45,0.36,2.96,0.37,4.44c0.04,5.51,0.01,11.02,0,16.53c0,0.34-0.04,0.69-0.06,1.01c-0.14,0.02-0.2,0.06-0.23,0.04
		c-2.02-1.08-4.06-2.14-5.72-3.76c-2.18-2.14-2.84-4.77-2.5-7.73c0.34-2.93,0.35-5.86-0.18-8.76c-0.79-4.37-3.34-7.36-7.53-8.69
		c-4.31-1.36-8.24-0.29-11.38,2.95c-5.43,5.6-3.76,14.55,3.28,17.91c0.85,0.41,1.15,0.86,1.12,1.81c-0.08,2.31-0.03,4.63-0.03,6.95
		c0,0.23,0,0.46,0,0.82c-1.33-0.52-2.57-0.96-3.77-1.48c-5.72-2.46-9.81-6.48-11.45-12.59c-1.54-5.77-1.08-11.36,2.33-16.45
		c3.45-5.16,8.27-8.11,14.49-8.7c0.18-0.02,0.36-0.08,0.55-0.12C214.93,243.68,216.2,243.68,217.48,243.68z"/>
	<path class="st0" d="M214.5,353.78c-0.77-0.32-1.63-0.52-2.3-0.99c-1.66-1.16-2.2-3.34-1.43-5.18c0.77-1.83,2.74-3,4.6-2.73
		c2.18,0.33,3.69,1.88,3.91,4.04c0.2,1.94-1.03,3.88-2.92,4.54c-0.46,0.16-0.96,0.22-1.44,0.32
		C214.79,353.78,214.64,353.78,214.5,353.78z"/>
	<path class="st0" d="M195.64,278.51c0.23,0.05,0.38,0.05,0.49,0.11c1.85,1.09,3.8,2.03,5.35,3.57c1.99,1.97,2.78,4.31,2.61,7.12
		c-0.17,2.85-0.22,5.72-0.02,8.56c0.34,4.79,4.01,8.91,8.67,9.82c4.73,0.93,9.82-1.11,12.32-5.93c2.34-4.53,1.37-9.98-2.42-13.33
		c-0.81-0.71-1.78-1.23-2.65-1.88c-0.21-0.16-0.46-0.45-0.46-0.68c-0.03-2.69-0.02-5.39-0.02-8.09c0-0.13,0.04-0.27,0.09-0.55
		c1.66,0.72,3.28,1.35,4.83,2.11c9.38,4.59,13.4,17.44,7.81,27.1c-3.41,5.89-8.49,9.04-15.16,9.73c-8.47,0.87-14.78-2.61-19.1-9.79
		c-1.69-2.82-2.45-5.99-2.46-9.28c-0.01-5.96,0.03-11.91,0.05-17.87C195.57,279.02,195.61,278.81,195.64,278.51z"/>
</g>
</svg>
